<svg
  width="158"
  height="39"
  viewBox="0 0 158 39"
  fill="none"
  xmlns="http://www.w3.org/2000/svg"
>
  <path
    d="M30.09 18.11L30.54 13.94H30.36L29.07 17.3L24.6 25.13H23.28L18.57 17.27L17.25 13.94H17.1L17.7 18.08V29H13.8V8H17.55L23.16 17.6L24.15 20H24.27L25.17 17.54L30.48 8H34.2V29H30.09V18.11Z"
    fill="white"
  />
  <path
    d="M49.7041 27.71C49.1041 28.19 48.2841 28.6 47.2441 28.94C46.2241 29.26 45.1341 29.42 43.9741 29.42C41.5541 29.42 39.7841 28.72 38.6641 27.32C37.5441 25.9 36.9841 23.96 36.9841 21.5C36.9841 18.86 37.6141 16.88 38.8741 15.56C40.1341 14.24 41.9041 13.58 44.1841 13.58C44.9441 13.58 45.6841 13.68 46.4041 13.88C47.1241 14.08 47.7641 14.41 48.3241 14.87C48.8841 15.33 49.3341 15.95 49.6741 16.73C50.0141 17.51 50.1841 18.48 50.1841 19.64C50.1841 20.06 50.1541 20.51 50.0941 20.99C50.0541 21.47 49.9841 21.97 49.8841 22.49H40.8841C40.9441 23.75 41.2641 24.7 41.8441 25.34C42.4441 25.98 43.4041 26.3 44.7241 26.3C45.5441 26.3 46.2741 26.18 46.9141 25.94C47.5741 25.68 48.0741 25.42 48.4141 25.16L49.7041 27.71ZM44.1241 16.7C43.1041 16.7 42.3441 17.01 41.8441 17.63C41.3641 18.23 41.0741 19.04 40.9741 20.06H46.5541C46.6341 18.98 46.4641 18.15 46.0441 17.57C45.6441 16.99 45.0041 16.7 44.1241 16.7Z"
    fill="white"
  />
  <path
    d="M62.1185 29V20.48C62.1185 19.26 61.9385 18.38 61.5785 17.84C61.2385 17.3 60.6485 17.03 59.8085 17.03C59.0685 17.03 58.4385 17.25 57.9185 17.69C57.4185 18.11 57.0585 18.64 56.8385 19.28V29H52.9385V14H56.0285L56.4785 15.98H56.5985C57.0585 15.34 57.6685 14.78 58.4285 14.3C59.1885 13.82 60.1685 13.58 61.3685 13.58C62.1085 13.58 62.7685 13.68 63.3485 13.88C63.9285 14.08 64.4185 14.41 64.8185 14.87C65.2185 15.33 65.5185 15.96 65.7185 16.76C65.9185 17.54 66.0185 18.51 66.0185 19.67V29H62.1185Z"
    fill="white"
  />
  <path
    d="M67.7262 14H69.7962V11.18L73.6962 10.07V14H77.3562V17.3H73.6962V23.06C73.6962 24.1 73.7962 24.85 73.9962 25.31C74.2162 25.75 74.6162 25.97 75.1962 25.97C75.5962 25.97 75.9362 25.93 76.2162 25.85C76.5162 25.77 76.8462 25.65 77.2062 25.49L77.8962 28.49C77.3562 28.75 76.7262 28.97 76.0062 29.15C75.2862 29.33 74.5562 29.42 73.8162 29.42C72.4362 29.42 71.4162 29.07 70.7562 28.37C70.1162 27.65 69.7962 26.48 69.7962 24.86V17.3H67.7262V14Z"
    fill="white"
  />
  <path
    d="M79.6551 14.87C80.4551 14.51 81.4051 14.23 82.5051 14.03C83.6051 13.81 84.7551 13.7 85.9551 13.7C86.9951 13.7 87.8652 13.83 88.5651 14.09C89.2651 14.33 89.8151 14.68 90.2151 15.14C90.6351 15.6 90.9251 16.15 91.0851 16.79C91.2651 17.43 91.3551 18.15 91.3551 18.95C91.3551 19.83 91.3251 20.72 91.2651 21.62C91.2051 22.5 91.1651 23.37 91.1451 24.23C91.1451 25.09 91.1751 25.93 91.2351 26.75C91.2951 27.55 91.4451 28.31 91.6851 29.03H88.5051L87.8751 26.96H87.7251C87.3251 27.58 86.7651 28.12 86.0451 28.58C85.3451 29.02 84.4352 29.24 83.3151 29.24C82.6152 29.24 81.9851 29.14 81.4251 28.94C80.8651 28.72 80.3851 28.42 79.9851 28.04C79.5851 27.64 79.2751 27.18 79.0551 26.66C78.8351 26.12 78.7251 25.52 78.7251 24.86C78.7251 23.94 78.9251 23.17 79.3251 22.55C79.7451 21.91 80.3351 21.4 81.0951 21.02C81.8751 20.62 82.7951 20.35 83.8551 20.21C84.9351 20.05 86.1351 20 87.4551 20.06C87.5951 18.94 87.5151 18.14 87.2151 17.66C86.9151 17.16 86.2451 16.91 85.2051 16.91C84.4251 16.91 83.5951 16.99 82.7151 17.15C81.8551 17.31 81.1451 17.52 80.5851 17.78L79.6551 14.87ZM84.6051 26.03C85.3851 26.03 86.0051 25.86 86.4651 25.52C86.9251 25.16 87.2651 24.78 87.4851 24.38V22.43C86.8651 22.37 86.2651 22.36 85.6851 22.4C85.1251 22.44 84.6251 22.53 84.1851 22.67C83.7451 22.81 83.3951 23.01 83.1351 23.27C82.8751 23.53 82.7451 23.86 82.7451 24.26C82.7451 24.82 82.9051 25.26 83.2251 25.58C83.5651 25.88 84.0251 26.03 84.6051 26.03Z"
    fill="white"
  />
  <path
    fill-rule="evenodd"
    clip-rule="evenodd"
    d="M11 14C11 10.6863 8.31371 8 5 8H0V13C0 16.3137 2.68629 19 6 19H10.4697L4.73483 13.2652C4.58839 13.1187 4.58839 12.8813 4.73483 12.7348C4.88128 12.5884 5.11872 12.5884 5.26516 12.7348L11 18.4697L11 14Z"
    fill="#67B3FA"
  />
  <path
    fill-rule="evenodd"
    clip-rule="evenodd"
    d="M10.6464 21H8C5.23858 21 3 23.2386 3 26V29H6C8.76142 29 11 26.7614 11 24V21.3536L7.17678 25.1768C7.07915 25.2744 6.92085 25.2744 6.82322 25.1768C6.72559 25.0791 6.72559 24.9209 6.82322 24.8232L10.6464 21Z"
    fill="#67B3FA"
  />
</svg>
